<svg id="Ebene_1" data-name="Ebene 1" xmlns="http://www.w3.org/2000/svg" xmlns:xlink="http://www.w3.org/1999/xlink" viewBox="0 0 759.21 327.12"><defs><style>.cls-1{fill:url(#Unbenannter_Verlauf_3);}.cls-2{fill:url(#Unbenannter_Verlauf_3-2);}</style><linearGradient id="Unbenannter_Verlauf_3" x1="47.44" y1="127.9" x2="197.32" y2="184.82" gradientUnits="userSpaceOnUse"><stop offset="0" stop-color="#00ffa3"/><stop offset="1"/></linearGradient><linearGradient id="Unbenannter_Verlauf_3-2" x1="168.42" y1="73.93" x2="376.79" y2="313.11" xlink:href="#Unbenannter_Verlauf_3"/></defs><polygon class="cls-1" points="150.97 156.06 125.14 212.31 74.94 107.91 58.28 249.47 0 249.47 30.77 0 78.21 0 150.97 156.06"/><polygon class="cls-2" points="301.59 249.47 243.29 249.47 227.01 107.54 172.7 220.87 129.25 220.87 125.14 212.31 150.97 156.06 177.41 98.52 222.67 0 271.18 0 301.59 249.47"/><path d="M689.33,569.43H565.51c5.07,16.3,19.19,26.43,39.46,26.43,15.93,0,32.23-7.24,42.73-17.37l27.51,34.75c-16.65,18.1-45.62,29.33-73.86,29.33-53.58,0-91.23-36.93-91.23-88.34,0-55,42.36-89.43,90.87-89.43s89.07,34,89.07,85.45C690.06,555,689.69,561.11,689.33,569.43Zm-52.49-31.5c-.73-16.65-15.57-27.87-34.76-27.87-15.93,0-31.5,7.6-36.93,27.87Z" transform="translate(-183.19 -388.76)"/><path d="M828.71,388.77c72,0,113.69,54.31,113.69,125.27,0,70.6-41.64,124.18-113.69,124.18H730.23V388.77Zm0,199.85c37.3,0,56.48-35.84,56.48-74.58,0-39.1-19.18-75.67-56.48-75.67H787.08V588.62Z" transform="translate(-183.19 -388.76)"/><path d="M404.33,698.5v16.59h-9.78V698.76c0-4.75-2.38-6.27-4.89-6.27-3,0-5.29,2.11-5.29,7.53v15.07h-9.78V699c0-4.76-2.38-6.47-4.83-6.47-2.64,0-5.35,1.32-5.35,6.47v16.13h-9.78V684.22h9.78v4.89c1.19-3.89,5.42-5.68,8.33-5.68a10.35,10.35,0,0,1,9.78,5.88c2.11-4.09,6.87-5.88,10.11-5.88C400.36,683.43,404.33,689.05,404.33,698.5Z" transform="translate(-183.19 -388.76)"/><path d="M443.13,702.53h-22.6c.92,3,3.5,4.82,7.2,4.82a11.71,11.71,0,0,0,7.8-3.17l5,6.35c-3,3.3-8.32,5.35-13.48,5.35-9.78,0-16.65-6.74-16.65-16.12,0-10,7.73-16.33,16.58-16.33s16.26,6.21,16.26,15.6C443.26,699.89,443.2,701,443.13,702.53Zm-9.58-5.75c-.14-3-2.84-5.09-6.35-5.09a6.55,6.55,0,0,0-6.74,5.09Z" transform="translate(-183.19 -388.76)"/><path d="M472.28,667.44H482v47.65h-9.71v-3.44c-2.25,3-6.41,4.23-9.58,4.23-7.67,0-14.94-6.28-14.94-16.26s7.27-16.19,14.94-16.19c3.17,0,7.33,1.26,9.58,4.17Zm-.4,32.18a7.11,7.11,0,1,0-14.21,0,7.11,7.11,0,1,0,14.21,0Z" transform="translate(-183.19 -388.76)"/><path d="M513,684.22h9.78v30.87H513v-3.9a12.2,12.2,0,0,1-9.78,4.69c-8.66,0-14.74-6.54-14.74-16.19s6.08-16.26,14.87-16.26a12.15,12.15,0,0,1,9.65,4.5Zm-.33,15.47a7.13,7.13,0,0,0-7.14-7.2,7,7,0,0,0-7.07,7.2,7.06,7.06,0,0,0,7.13,7.14A7.18,7.18,0,0,0,512.67,699.69Z" transform="translate(-183.19 -388.76)"/><path d="M580.68,698.5v16.59h-9.79V698.76c0-4.75-2.37-6.27-4.89-6.27-3,0-5.28,2.11-5.28,7.53v15.07h-9.78V699c0-4.76-2.38-6.47-4.83-6.47-2.64,0-5.35,1.32-5.35,6.47v16.13H531V684.22h9.78v4.89c1.19-3.89,5.42-5.68,8.33-5.68a10.35,10.35,0,0,1,9.78,5.88c2.11-4.09,6.87-5.88,10.11-5.88C576.71,683.43,580.68,689.05,580.68,698.5Z" transform="translate(-183.19 -388.76)"/><path d="M587.29,673.91a5.87,5.87,0,0,1,6.08-5.68,5.75,5.75,0,0,1,6,5.68,5.83,5.83,0,0,1-6,5.69A6,6,0,0,1,587.29,673.91Zm1.19,41.18V684.22h9.78v30.87Z" transform="translate(-183.19 -388.76)"/><path d="M637.32,698.5v16.59h-9.78v-16c0-4.75-2.91-6.6-5.35-6.6-2.64,0-6,1.38-6,6.54v16.06h-9.78V684.22h9.78v5.36c1.19-4.23,6-6.15,8.86-6.15C633.29,683.43,637.32,689.05,637.32,698.5Z" transform="translate(-183.19 -388.76)"/><path d="M679.43,699.62c0,10-7.27,16.26-15,16.26-3.18,0-7.27-1.26-9.52-4.23v3.44h-9.78V667.44h9.78V687.6c2.25-2.91,6.34-4.17,9.52-4.17C672.16,683.43,679.43,689.64,679.43,699.62Zm-9.91,0a7.14,7.14,0,1,0-7.14,7.21A7.23,7.23,0,0,0,669.52,699.62Z" transform="translate(-183.19 -388.76)"/><path d="M685.84,715.09V667.44h9.79v47.65Z" transform="translate(-183.19 -388.76)"/></svg>